{
  "asset": {
    "version": "2.0",
    "generator": "THREE.GLTFExporter"
  },
  "scenes": [
    {
      "nodes": [
        0
      ]
    }
  ],
  "scene": 0,
  "nodes": [
    {
      "children": [
        29
      ],
      "matrix": [
        0.01,
        0,
        0,
        0,
        0,
        0.01,
        0,
        0,
        0,
        0,
        0.01,
        0,
        0,
        0,
        0,
        1
      ]
    },
    {
      "matrix": [
        20,
        0,
        0,
        0,
        0,
        20,
        0,
        0,
        0,
        0,
        20,
        0,
        23.593420747353875,
        -388.5908501803632,
        -1541.783069028755,
        1
      ],
      "name": "Shirt",
      "mesh": 0
    },
    {
      "matrix": [
        1,
        0,
        0,
        0,
        0,
        1,
        0,
        0,
        0,
        0,
        1,
        0,
        -23.593420747353875,
        267.46137757784203,
        1541.7830690287549,
        1
      ],
      "name": "PRODUCT ROTATE",
      "children": [
        1
      ]
    },
    {
      "matrix": [
        3,
        0,
        0,
        0,
        0,
        2.853352904140216,
        0,
        0,
        0,
        0,
        3,
        0,
        -1161.6249642909988,
        2496.1687149562267,
        -173.56715323005847,
        1
      ],
      "name": "Backdrop",
      "mesh": 1
    },
    {
      "matrix": [
        1,
        0,
        0,
        0,
        0,
        1,
        0,
        0,
        0,
        0,
        1,
        0,
        0,
        101.76558071817959,
        0,
        1
      ],
      "name": "geo",
      "children": [
        2,
        3
      ]
    },
    {
      "matrix": [
        0.9533206636579981,
        4.9554159928244523e-8,
        -0.30195978580379174,
        0,
        -0.08455302058176763,
        0.9599959090517682,
        -0.2669431424748881,
        0,
        0.28988014584164506,
        0.280014025727046,
        0.9151839413161487,
        0,
        1215.6998334444104,
        1393.1006787692452,
        3910.0909572537544,
        1
      ],
      "name": "CHECK",
      "camera": 0
    },
    {
      "matrix": [
        0.9937086052397991,
        2.5780910360533038e-8,
        -0.11199646366011969,
        0,
        0.005276288814134605,
        0.9988896397757118,
        0.046815043790416705,
        0,
        0.11187210844854499,
        -0.04711143755764763,
        0.9926052305939803,
        0,
        386.32708265049433,
        288.85626123655976,
        3094.0144453152707,
        1
      ],
      "name": "Camera",
      "camera": 1
    },
    {
      "matrix": [
        0.45807296316901447,
        0.8889145968053168,
        1.6691377249756498e-16,
        0,
        -0.7692039811062785,
        0.39638402628675107,
        0.5012034907649351,
        0,
        0.4455270989107297,
        -0.22958776816534757,
        0.8653294522001682,
        0,
        -1799.2100000000007,
        1193.6201759916544,
        2236.2518053228846,
        1.0000000000000002
      ],
      "name": "Spot Light 3",
      "extensions": {
        "KHR_lights_punctual": {
          "light": 0
        }
      }
    },
    {
      "matrix": [
        1,
        0,
        0,
        0,
        0,
        1,
        0,
        0,
        0,
        0,
        1,
        0,
        -488.5734656024856,
        923.6431882636289,
        -317.3698537971504,
        1
      ],
      "name": "Point Light 2",
      "extensions": {
        "KHR_lights_punctual": {
          "light": 1
        }
      }
    },
    {
      "matrix": [
        -1,
        7.799177479319381e-17,
        7.780109506317585e-17,
        0,
        1.224646799147353e-16,
        1,
        1.2246467991473532e-16,
        0,
        7.47680009823374e-18,
        8.247387331259903e-18,
        -0.06734502827265833,
        0,
        472.7536511219184,
        923.6431882636289,
        -292.90665569587145,
        1
      ],
      "name": "Point Light",
      "extensions": {
        "KHR_lights_punctual": {
          "light": 2
        }
      }
    },
    {
      "matrix": [
        0.457912281180308,
        0.5388101175221626,
        -0.7071067811865475,
        0,
        -0.7619925757436834,
        0.6475857584223937,
        0,
        0,
        0.45791228118030797,
        0.5388101175221625,
        0.7071067811865476,
        0,
        0,
        0,
        0,
        1
      ],
      "name": "Directional Light",
      "extensions": {
        "KHR_lights_punctual": {
          "light": 3
        }
      }
    },
    {
      "matrix": [
        0.9514028258943996,
        -0.13829969944423398,
        0.2751469716602123,
        0,
        0.3078630393790675,
        0.44827962483141537,
        -0.8392054140347806,
        0,
        -0.007280924696355495,
        0.8831299853898298,
        0.469071867671603,
        0,
        -392.27961545154295,
        -619.1870302179946,
        342.41946225812916,
        0.9999999999999998
      ],
      "name": "Reeded glass",
      "mesh": 2
    },
    {
      "matrix": [
        0.9920971226828333,
        0,
        -0.12547230437209322,
        0,
        0,
        1,
        0,
        0,
        0.12547230437209322,
        0,
        0.9920971226828333,
        0,
        -37,
        500,
        0,
        1
      ],
      "mesh": 2
    },
    {
      "matrix": [
        0.9785506797864916,
        0,
        0.20600623070527532,
        0,
        0,
        1,
        0,
        0,
        -0.20600623070527532,
        0,
        0.9785506797864916,
        0,
        212.99999999999997,
        433.01270189221935,
        0,
        1
      ],
      "mesh": 2
    },
    {
      "matrix": [
        0.9507166082619489,
        0,
        0.31006117263355626,
        0,
        0,
        1,
        0,
        0,
        -0.31006117263355626,
        0,
        0.9507166082619489,
        0,
        396.0127018922193,
        250.0000000000001,
        0,
        1
      ],
      "mesh": 2
    },
    {
      "matrix": [
        0.9806402236923014,
        0,
        0.19581815972149555,
        0,
        0,
        1,
        0,
        0,
        -0.19581815972149555,
        0,
        0.9806402236923014,
        0,
        463,
        1.1102230246251565e-13,
        0,
        1
      ],
      "mesh": 2
    },
    {
      "matrix": [
        0.9352443204742318,
        0,
        0.35400291103420667,
        0,
        0,
        1,
        0,
        0,
        -0.35400291103420667,
        0,
        0.9352443204742318,
        0,
        396.0127018922194,
        -249.9999999999999,
        0,
        1
      ],
      "mesh": 2
    },
    {
      "matrix": [
        0.9988015179984394,
        0,
        -0.04894412777865231,
        0,
        0,
        1,
        0,
        0,
        0.04894412777865231,
        0,
        0.9988015179984394,
        0,
        213.00000000000017,
        -433.0127018922192,
        0,
        1
      ],
      "mesh": 2
    },
    {
      "matrix": [
        0.9804787699756001,
        0,
        -0.19662497711922078,
        0,
        0,
        1,
        0,
        0,
        0.19662497711922078,
        0,
        0.9804787699756001,
        0,
        -36.999999999999936,
        -500,
        0,
        1
      ],
      "mesh": 2
    },
    {
      "matrix": [
        0.9625357286107906,
        0,
        0.2711548840565007,
        0,
        0,
        1,
        0,
        0,
        -0.2711548840565007,
        0,
        0.9625357286107906,
        0,
        -286.9999999999999,
        -433.0127018922194,
        0,
        1
      ],
      "mesh": 2
    },
    {
      "matrix": [
        0.9996759759193752,
        0,
        -0.025454727844643955,
        0,
        0,
        1,
        0,
        0,
        0.025454727844643955,
        0,
        0.9996759759193752,
        0,
        -470.0127018922192,
        -250.00000000000017,
        0,
        1
      ],
      "mesh": 2
    },
    {
      "matrix": [
        0.9360731283504832,
        0,
        0.35180548372664655,
        0,
        0,
        1,
        0,
        0,
        -0.35180548372664655,
        0,
        0.9360731283504832,
        0,
        -537,
        -1.1102230246251565e-13,
        0,
        1
      ],
      "mesh": 2
    },
    {
      "matrix": [
        0.9994794316509437,
        0,
        -0.03226245041385936,
        0,
        0,
        1,
        0,
        0,
        0.03226245041385936,
        0,
        0.9994794316509437,
        0,
        -470.0127018922195,
        249.99999999999966,
        0,
        1
      ],
      "mesh": 2
    },
    {
      "matrix": [
        0.9947432473580774,
        0,
        0.10240054607035427,
        0,
        0,
        1,
        0,
        0,
        -0.10240054607035427,
        0,
        0.9947432473580774,
        0,
        -287.0000000000002,
        433.0127018922192,
        0,
        1
      ],
      "mesh": 2
    },
    {
      "matrix": [
        0.9514028258943996,
        -0.13829969944423398,
        0.2751469716602123,
        0,
        0.3078630393790675,
        0.44827962483141537,
        -0.8392054140347806,
        0,
        -0.007280924696355495,
        0.8831299853898298,
        0.469071867671603,
        0,
        -392.27961545154295,
        -619.1870302179946,
        342.41946225812916,
        0.9999999999999998
      ],
      "children": [
        12,
        13,
        14,
        15,
        16,
        17,
        18,
        19,
        20,
        21,
        22,
        23
      ]
    },
    {
      "matrix": [
        0.7233168662953917,
        0.28957539689996326,
        0.6268642599820496,
        0,
        -0.6695328692219422,
        0.5162091375034492,
        0.5340916245265217,
        0,
        -0.16893326482385854,
        -0.8060237067656106,
        0.5672630220345573,
        0,
        -2786.0899999999997,
        2101.93,
        1838.625766725752,
        1.0000000000000004
      ],
      "name": "Spot Light 2",
      "children": [
        11,
        24
      ],
      "extensions": {
        "KHR_lights_punctual": {
          "light": 4
        }
      }
    },
    {
      "name": "Lights",
      "children": [
        7,
        8,
        9,
        10,
        25
      ]
    },
    {
      "matrix": [
        0.9999080055735761,
        1.4894958660352162e-8,
        -0.013563937108124067,
        0,
        -0.0003913331098604,
        0.9995837550193126,
        -0.02884724527381893,
        0,
        0.013558290757705926,
        0.028849899505726525,
        0.9994917988909359,
        0,
        -30.517817030860222,
        303.2132998754366,
        840.3562216786931,
        1
      ],
      "name": "Personal Camera",
      "camera": 2
    },
    {
      "matrix": [
        1,
        0,
        0,
        0,
        0,
        1,
        0,
        0,
        0,
        0,
        1,
        0,
        0,
        1,
        0,
        1
      ],
      "name": "Default Ambient Light"
    },
    {
      "name": "reededGlass",
      "children": [
        4,
        5,
        6,
        26,
        27,
        28
      ]
    }
  ],
  "bufferViews": [
    {
      "buffer": 0,
      "byteOffset": 0,
      "byteLength": 444384,
      "target": 34962,
      "byteStride": 12
    },
    {
      "buffer": 0,
      "byteOffset": 444384,
      "byteLength": 444384,
      "target": 34962,
      "byteStride": 12
    },
    {
      "buffer": 0,
      "byteOffset": 888768,
      "byteLength": 296256,
      "target": 34962,
      "byteStride": 8
    },
    {
      "buffer": 0,
      "byteOffset": 1185024,
      "byteLength": 720,
      "target": 34962,
      "byteStride": 12
    },
    {
      "buffer": 0,
      "byteOffset": 1185744,
      "byteLength": 720,
      "target": 34962,
      "byteStride": 12
    },
    {
      "buffer": 0,
      "byteOffset": 1186464,
      "byteLength": 480,
      "target": 34962,
      "byteStride": 8
    },
    {
      "buffer": 0,
      "byteOffset": 1186944,
      "byteLength": 12528,
      "target": 34962,
      "byteStride": 12
    },
    {
      "buffer": 0,
      "byteOffset": 1199472,
      "byteLength": 12528,
      "target": 34962,
      "byteStride": 12
    },
    {
      "buffer": 0,
      "byteOffset": 1212000,
      "byteLength": 4728,
      "target": 34963
    }
  ],
  "buffers": [
    {
      "byteLength": 1216728,
      "uri": "data:application/octet-stream;base64,"
    }
  ],
  "accessors": [
    {
      "bufferView": 0,
      "componentType": 5126,
      "count": 37032,
      "max": [
        27.597469329833984,
        55.0400390625,
        13.935165405273438
      ],
      "min": [
        -27.675762176513672,
        -5.756649971008301,
        -13.047693252563477
      ],
      "type": "VEC3"
    },
    {
      "bufferView": 1,
      "componentType": 5126,
      "count": 37032,
      "max": [
        0.9999991059303284,
        0.9998999238014221,
        0.9999734163284302
      ],
      "min": [
        -0.9999262690544128,
        -0.9931808114051819,
        -0.9999884963035583
      ],
      "type": "VEC3"
    },
    {
      "bufferView": 2,
      "componentType": 5126,
      "count": 37032,
      "max": [
        1.0059820413589478,
        0.8846002817153931
      ],
      "min": [
        0.008899999782443047,
        0.25647497177124023
      ],
      "type": "VEC2"
    },
    {
      "bufferView": 3,
      "componentType": 5126,
      "count": 60,
      "max": [
        2355.627685546875,
        1060.4775390625,
        1950.6890869140625
      ],
      "min": [
        -2355.627685546875,
        -1060.4775390625,
        -1950.6890869140625
      ],
      "type": "VEC3"
    },
    {
      "bufferView": 4,
      "componentType": 5126,
      "count": 60,
      "max": [
        0,
        1,
        1
      ],
      "min": [
        0,
        0,
        0
      ],
      "type": "VEC3"
    },
    {
      "bufferView": 5,
      "componentType": 5126,
      "count": 60,
      "max": [
        1,
        1
      ],
      "min": [
        0,
        0
      ],
      "type": "VEC2"
    },
    {
      "bufferView": 6,
      "componentType": 5126,
      "count": 1044,
      "max": [
        81.42485046386719,
        471.1179504394531,
        -377.8668518066406
      ],
      "min": [
        -66.43833923339844,
        -505.9411926269531,
        -525.7300415039062
      ],
      "type": "VEC3"
    },
    {
      "bufferView": 7,
      "componentType": 5126,
      "count": 1044,
      "max": [
        0.9986663460731506,
        0,
        0.9979375600814819
      ],
      "min": [
        -0.9976463913917542,
        -0.9999516606330872,
        -0.9985777735710144
      ],
      "type": "VEC3"
    },
    {
      "bufferView": 8,
      "componentType": 5125,
      "count": 1182,
      "max": [
        1043
      ],
      "min": [
        0
      ],
      "type": "SCALAR"
    }
  ],
  "meshes": [
    {
      "primitives": [
        {
          "mode": 4,
          "attributes": {
            "POSITION": 0,
            "NORMAL": 1,
            "TEXCOORD_0": 2
          },
          "extras": {
            "parameters": {
              "width": 55.273231506347656,
              "height": 60.7966890335083,
              "depth": 26.982858657836914,
              "subdivisions": 0
            },
            "type": "NonParametricGeometry"
          }
        }
      ]
    },
    {
      "primitives": [
        {
          "mode": 4,
          "attributes": {
            "POSITION": 3,
            "NORMAL": 4,
            "TEXCOORD_0": 5
          },
          "extras": {
            "parameters": {
              "width": 4711.255437166957,
              "angle": 90,
              "cornerRadius": 24,
              "cornerSegments": 8,
              "height": 2120.9551548503746,
              "depth": 3901.3781021533723,
              "type": "BackdropGeometry"
            },
            "type": "BackdropGeometry"
          }
        }
      ]
    },
    {
      "primitives": [
        {
          "mode": 4,
          "attributes": {
            "POSITION": 6,
            "NORMAL": 7
          },
          "extras": {
            "type": "SubdivGeometry",
            "parameters": {
              "width": 147.86318969726562,
              "height": 977.0591430664062,
              "depth": 147.86318969726562
            }
          },
          "indices": 8
        }
      ]
    }
  ],
  "cameras": [
    {
      "type": "perspective",
      "perspective": {
        "aspectRatio": 1.9870722433460075,
        "yfov": 0.5375614096142535,
        "zfar": 100000,
        "znear": 70
      },
      "name": "Camera"
    },
    {
      "type": "perspective",
      "perspective": {
        "aspectRatio": 1.9870722433460075,
        "yfov": 0.5375614096142535,
        "zfar": 100000,
        "znear": 70
      },
      "name": "Camera"
    },
    {
      "type": "perspective",
      "perspective": {
        "aspectRatio": 1.9870722433460075,
        "yfov": 0.7853981633974483,
        "zfar": 100000,
        "znear": 70
      },
      "name": "Camera"
    }
  ],
  "extensions": {
    "KHR_lights_punctual": {
      "lights": [
        {
          "name": "Spot Light 3",
          "color": [
            1,
            1,
            1
          ],
          "intensity": 3.564,
          "type": "spot",
          "range": 3590,
          "spot": {
            "innerConeAngle": 0.05235987755982987,
            "outerConeAngle": 0.5235987755982988
          }
        },
        {
          "name": "Point Light 2",
          "color": [
            1,
            1,
            1
          ],
          "intensity": 9.718,
          "type": "point",
          "range": 975
        },
        {
          "name": "Point Light",
          "color": [
            1,
            1,
            1
          ],
          "intensity": 9.718,
          "type": "point",
          "range": 1231
        },
        {
          "name": "Directional Light",
          "color": [
            1,
            1,
            1
          ],
          "intensity": 0.128,
          "type": "directional"
        },
        {
          "name": "Spot Light 2",
          "color": [
            1,
            1,
            1
          ],
          "intensity": 2.649,
          "type": "spot",
          "range": 5769,
          "spot": {
            "innerConeAngle": 0.5235987755982988,
            "outerConeAngle": 0.5235987755982988
          }
        }
      ]
    }
  },
  "extensionsUsed": [
    "KHR_lights_punctual"
  ]
}